{
	"patcher" : 	{
		"fileversion" : 1,
		"appversion" : 		{
			"major" : 8,
			"minor" : 6,
			"revision" : 0,
			"architecture" : "x64",
			"modernui" : 1
		}
,
		"classnamespace" : "dsp.gen",
		"rect" : [ 3434.0, 311.0, 951.0, 882.0 ],
		"bglocked" : 0,
		"openinpresentation" : 0,
		"default_fontsize" : 12.0,
		"default_fontface" : 0,
		"default_fontname" : "Arial",
		"gridonopen" : 1,
		"gridsize" : [ 15.0, 15.0 ],
		"gridsnaponopen" : 1,
		"objectsnaponopen" : 1,
		"statusbarvisible" : 2,
		"toolbarvisible" : 1,
		"lefttoolbarpinned" : 0,
		"toptoolbarpinned" : 0,
		"righttoolbarpinned" : 0,
		"bottomtoolbarpinned" : 0,
		"toolbars_unpinned_last_save" : 0,
		"tallnewobj" : 0,
		"boxanimatetime" : 200,
		"enablehscroll" : 1,
		"enablevscroll" : 1,
		"devicewidth" : 0.0,
		"description" : "",
		"digest" : "",
		"tags" : "",
		"style" : "",
		"subpatcher_template" : "",
		"assistshowspatchername" : 0,
		"boxes" : [ 			{
				"box" : 				{
					"id" : "obj-1",
					"maxclass" : "newobj",
					"numinlets" : 0,
					"numoutlets" : 1,
					"outlettype" : [ "" ],
					"patching_rect" : [ 15.0, 15.0, 28.0, 22.0 ],
					"text" : "in 1"
				}

			}
, 			{
				"box" : 				{
					"id" : "obj-2",
					"maxclass" : "newobj",
					"numinlets" : 0,
					"numoutlets" : 1,
					"outlettype" : [ "" ],
					"patching_rect" : [ 305.0, 14.0, 28.0, 22.0 ],
					"text" : "in 2"
				}

			}
, 			{
				"box" : 				{
					"code" : "History sumVal(0);\r\nHistory lastVal(0);\r\nHistory lastAbs(0);\r\nParam abs(0);\r\nParam dir(0);\r\n\r\nval = in1;\r\ngate = in2;\r\n\r\n\r\nif (in2 == 0) {\r\n\tsumVal = 0;\r\n\tout1 = 0;\r\n} else {\r\n\tif (abs != lastAbs) {\r\n\t\tif (abs == 1) {\r\n\t\t\tsumVal += lastVal;\r\n\t\t} else {\r\n\t\t\tsumVal = floor(sumVal);\r\n\t\t}\r\n\t\tlastAbs = abs;\r\n\t}\r\n\tif (abs == 1) {\r\n\t\tif (0 < dir && val - lastVal < -0.5) {\r\n\t\t\tlastVal -= 1;\r\n\t\t} else if (dir < 0 && 0.5 < val - lastVal) {\r\n\t\t\tlastVal += 1;\r\n\t\t}\r\n\t} else {\r\n\t\t\r\n\t\tif (0 < dir && val - lastVal < -0.5) {\r\n\t\t\tsumVal += 1;\r\n\t\t} else if (dir < 0 && 0.5 < val - lastVal) {\r\n\t\t\tsumVal -= 1;\r\n\t\t}\r\n\t}\r\n\t\r\n\tif (abs == 1) {\r\n\t\tsumVal += (val - lastVal) * dir;\r\n\t\tout1 = sumVal;\r\n\t} else {\r\n\t\tif (0 < dir) {\r\n\t\t\tout1 = floor(sumVal) + val;\r\n\t\t} else if (dir < 0) {\r\n\t\t\tout1 = floor(sumVal) + (1 - val);\r\n\t\t} else {\r\n\t\t\tout1 = floor(sumVal);\r\n\t\t}\r\n\t}\r\n}\r\nlastVal = val;\r\n\r\n\r\n\r\n\r\n",
					"fontface" : 0,
					"fontname" : "<Monospaced>",
					"fontsize" : 12.0,
					"id" : "obj-3",
					"maxclass" : "codebox",
					"numinlets" : 2,
					"numoutlets" : 1,
					"outlettype" : [ "" ],
					"patching_rect" : [ 15.0, 60.0, 618.0, 731.0 ]
				}

			}
, 			{
				"box" : 				{
					"id" : "obj-4",
					"maxclass" : "newobj",
					"numinlets" : 1,
					"numoutlets" : 0,
					"patching_rect" : [ 15.0, 855.0, 35.0, 22.0 ],
					"text" : "out 1"
				}

			}
 ],
		"lines" : [ 			{
				"patchline" : 				{
					"destination" : [ "obj-3", 0 ],
					"source" : [ "obj-1", 0 ]
				}

			}
, 			{
				"patchline" : 				{
					"destination" : [ "obj-3", 1 ],
					"source" : [ "obj-2", 0 ]
				}

			}
, 			{
				"patchline" : 				{
					"destination" : [ "obj-4", 0 ],
					"source" : [ "obj-3", 0 ]
				}

			}
 ],
		"saved_attribute_attributes" : 		{
			"default_plcolor" : 			{
				"expression" : ""
			}

		}

	}

}
